<?xml version="1.0" encoding="UTF-8" standalone="no"?>
<svg
   viewBox="0 0 8100 12656.25"
   version="1.1"
   x="0px"
   y="0px"
   id="svg4256"
   inkscape:version="1.2.2 (b0a8486541, 2022-12-01)"
   sodipodi:docname="trainers.svg"
   width="8100"
   height="12656.25"
   xmlns:inkscape="http://www.inkscape.org/namespaces/inkscape"
   xmlns:sodipodi="http://sodipodi.sourceforge.net/DTD/sodipodi-0.dtd"
   xmlns:xlink="http://www.w3.org/1999/xlink"
   xmlns="http://www.w3.org/2000/svg"
   xmlns:svg="http://www.w3.org/2000/svg"
   xmlns:rdf="http://www.w3.org/1999/02/22-rdf-syntax-ns#"
   xmlns:cc="http://creativecommons.org/ns#"
   xmlns:dc="http://purl.org/dc/elements/1.1/"
   xmlns:sketch="http://www.bohemiancoding.com/sketch/ns">
  <metadata
     id="metadata4281">
    <rdf:RDF>
      <cc:Work
         rdf:about="">
        <dc:format>image/svg+xml</dc:format>
        <dc:type
           rdf:resource="http://purl.org/dc/dcmitype/StillImage" />
      </cc:Work>
    </rdf:RDF>
  </metadata>
  <sodipodi:namedview
     pagecolor="#ffffff"
     bordercolor="#666666"
     borderopacity="1"
     objecttolerance="10"
     gridtolerance="10"
     guidetolerance="10"
     inkscape:pageopacity="0"
     inkscape:pageshadow="2"
     inkscape:window-width="1854"
     inkscape:window-height="1016"
     id="namedview4279"
     showgrid="false"
     inkscape:zoom="2.0977778"
     inkscape:cx="45.286016"
     inkscape:cy="56.488347"
     inkscape:window-x="66"
     inkscape:window-y="27"
     inkscape:window-maximized="1"
     inkscape:current-layer="svg4256"
     inkscape:showpageshadow="0"
     inkscape:pagecheckerboard="1"
     inkscape:deskcolor="#d1d1d1" />
  <title
     id="title4258">school-learn-study-teacher-teaching 2</title>
  <desc
     id="desc4260">Created with Sketch.</desc>
  <defs
     id="defs4262">
    <path
       d="m 71.612319,41.068454 c 0.805434,1.089662 0.792615,2.627524 -0.117098,3.71086 l -10.053013,11.97168 c -1.458877,1.73731 -4.243785,1.289202 -5.084049,-0.818053 L 51.939385,44.851324 c -0.09401,-0.235775 -0.255795,-0.473416 -0.46082,-0.69619 L 54.240723,65 H 30.600098 l 2.685573,-20.893842 v 0 c -0.193889,0.222488 -0.34529,0.462123 -0.430892,0.702529 L 26.827,61.737195 c -0.555779,1.560857 -2.271652,2.375634 -3.832509,1.819856 -1.560857,-0.555779 -2.375635,-2.271652 -1.819856,-3.832509 l 6.02778,-16.928508 C 28.37538,39.501859 31.900582,37 35.39053,37 h 13.836089 c 3.435771,0 7.015665,2.443117 8.286029,5.628996 l 2.634736,6.60752 6.753003,-8.315635 c 0.956318,-1.138836 2.578743,-1.388312 3.818583,-0.657072 l 10.799548,-13.594063 0.37322,-0.469795 0.939589,0.746439 -0.373219,0.469795 z M 43,35 c 4.418278,0 8,-3.581722 8,-8 0,-4.418278 -3.581722,-8 -8,-8 -4.418278,0 -8,3.581722 -8,8 0,4.418278 3.581722,8 8,8 z M 25,65 v 4 h 36 v -4 z"
       id="a" />
  </defs>
  <g
     sketch:type="MSPage"
     id="g4265"
     transform="matrix(1.43354,0,0,1.4707197,-29.478885,-8.6063872)"
     style="fill:none;fill-rule:evenodd;stroke:none;stroke-width:1">
    <g
       sketch:type="MSLayerGroup"
       id="g4267">
      <g
         id="g4269">
        <use
           sketch:type="MSShapeGroup"
           xlink:href="#a"
           id="use4271"
           style="fill:#000000;fill-rule:evenodd"
           x="0"
           y="0"
           width="100%"
           height="100%" />
        <use
           xlink:href="#a"
           id="use4273"
           style="fill:none"
           x="0"
           y="0"
           width="100%"
           height="100%" />
      </g>
    </g>
  </g>
</svg>
